<svg xmlns="http://www.w3.org/2000/svg" width="12" height="15" viewBox="-3 -3 18 21" fill="none" transform="matrix(-1, 0, 0, 1, 0, 0)"><g id="deeditor_bgCarrier" stroke-width="0">
    <rect id="dee_c_e" x="-3" y="-3" width="18" height="21" rx="0" fill="#fcfcfc" strokewidth="0"/>
  </g>
<path d="M5.74106 11.597C6.14906 11.597 6.51206 11.531 6.83006 11.399C7.15406 11.261 7.42706 11.066 7.64906 10.814C7.87106 10.562 8.03906 10.256 8.15306 9.89599C8.27306 9.52999 8.33306 9.11599 8.33306 8.65399V0.886993H11.3751V8.65399C11.3751 9.45799 11.2431 10.196 10.9791 10.868C10.7211 11.54 10.3491 12.119 9.86306 12.605C9.37706 13.091 8.78606 13.469 8.09006 13.739C7.39406 14.009 6.61106 14.144 5.74106 14.144C4.86506 14.144 4.07906 14.009 3.38306 13.739C2.68706 13.469 2.09606 13.091 1.61006 12.605C1.12406 12.119 0.752056 11.54 0.494056 10.868C0.236056 10.196 0.107056 9.45799 0.107056 8.65399V0.886993H3.14906V8.64499C3.14906 9.10699 3.20606 9.52099 3.32006 9.88699C3.44006 10.247 3.61106 10.556 3.83306 10.814C4.05506 11.066 4.32506 11.261 4.64306 11.399C4.96706 11.531 5.33306 11.597 5.74106 11.597Z" fill="#189aff"/>
</svg>